<svg width="580" height="180" viewBox="0 0 580 180" fill="none" xmlns="http://www.w3.org/2000/svg">
<g clip-path="url(#clip0)">
<path d="M424.968 73.918C424.968 65.662 421.614 60.588 413.53 58.61V58.438C419.378 56.46 422.216 51.3 422.216 45.28C422.216 35.476 415.336 30.66 406.048 30.66H390.31V90H406.048C416.626 90 424.968 85.614 424.968 73.918ZM415.508 45.71C415.508 54.052 410.004 56.288 402.78 56.288H397.018V36.25H403.726C410.262 36.25 415.508 38.056 415.508 45.71ZM418.26 73.23C418.26 81.658 412.154 84.41 404.758 84.41H397.018V61.878H405.532C412.584 61.878 418.26 65.748 418.26 73.23ZM463.591 65.662V63.684C463.591 54.654 458.861 48.118 449.315 48.118C437.275 48.118 433.319 57.492 433.319 68.156C433.319 81.4 439.081 90.946 453.271 90.946C456.453 90.946 459.635 90.688 462.645 89.742V84.926C459.893 85.614 457.399 86.044 454.561 86.044C444.499 86.044 440.027 77.014 440.027 68.07V65.662H463.591ZM456.883 60.76H440.457C441.317 56.288 444.241 53.02 449.057 53.02C453.529 53.02 456.883 56.288 456.883 60.76ZM493.978 54.396V48.118C487.442 48.118 482.884 51.042 480.304 56.976H480.132V49.064H474.284V90H480.132V73.058C480.132 64.114 483.4 54.396 493.978 54.396ZM507.775 90V30.66H501.927V90H507.775ZM529.465 38.4V30.66H521.725V38.4H529.465ZM528.519 90V49.064H522.671V90H528.519ZM572.226 90V60.76C572.226 54.31 568.958 48.118 561.734 48.118C554.596 48.118 550.984 52.246 548.92 58.524H548.748V49.064H542.9V90H548.748V73.144C548.748 66.694 552.188 53.966 560.358 53.966C567.066 53.966 566.378 62.652 566.378 67.296V90H572.226Z" fill="black"/>
<path fill-rule="evenodd" clip-rule="evenodd" d="M357.99 180L177.872 179.998C198.21 122.045 198.261 58.0287 177.868 0L360 0.00211668V180" fill="#003366"/>
<path fill-rule="evenodd" clip-rule="evenodd" d="M337.563 33.2232C339.001 31.6191 338.864 30.3189 337.259 30.3189H329.376C327.773 30.3189 326.968 30.1452 324.386 32.7251L302.371 56.5597L302.311 33.2232C302.311 31.6191 301.01 30.3189 299.404 30.3189H294.053C292.448 30.3189 291.145 31.6191 291.145 33.2232L291.143 86.2382C291.143 87.8403 292.444 89.1405 294.049 89.1405H299.425C301.03 89.1405 302.331 87.8403 302.331 86.2382L302.336 72.3757L312.116 61.8145L327.216 86.2382C328.199 87.8403 329.578 89.1405 331.184 89.1405H339.249C340.856 89.1405 341.361 87.8403 340.378 86.2382L319.55 53.5168L337.563 33.2232Z" fill="white"/>
<path fill-rule="evenodd" clip-rule="evenodd" d="M208.431 86.2376C208.431 87.8418 209.732 89.142 211.335 89.142H217.216C218.823 89.142 220.124 87.8418 220.124 86.2376L220.149 33.2247C220.149 31.6206 218.848 30.3203 217.243 30.3203H211.366C209.759 30.3203 208.46 31.6206 208.46 33.2247L208.431 86.2376Z" fill="white"/>
<path fill-rule="evenodd" clip-rule="evenodd" d="M267.332 33.2247C267.332 31.6206 268.633 30.3203 270.238 30.3203H276.048C277.656 30.3203 278.957 31.6206 278.957 33.2247L278.949 86.2397C278.949 87.8418 277.647 89.142 276.042 89.142H270.271C268.666 89.142 267.365 87.8418 267.365 86.2397L267.344 64.402H243.957L243.961 86.2397C243.961 87.8418 242.662 89.142 241.055 89.142H235.246C233.641 89.142 232.34 87.8418 232.34 86.2397L232.342 33.2247C232.342 31.6206 233.643 30.3203 235.248 30.3203H241.075C242.678 30.3203 243.982 31.6206 243.982 33.2247L243.957 54.5518H267.344L267.332 33.2247Z" fill="white"/>
<path fill-rule="evenodd" clip-rule="evenodd" d="M180.433 0L0 0.00211668V180L180.431 179.998C200.802 122.045 200.857 58.0287 180.433 0Z" fill="#CCD7E6"/>
<path d="M124.504 153.37H130.829C129.248 120.738 123.555 87.8959 115.121 63.5801C104.368 32.5274 89.3974 15.5801 71.8968 14.3169H71.686C62.1977 14.1064 53.5529 17.8959 45.9623 25.4748C24.4556 46.8432 12.8589 96.9485 14.124 163.054L14.2294 166.738L29.516 166.843L33.3113 137.475C37.212 69.7906 51.0227 32.3169 72.7402 31.2643C96.4608 32.5274 113.54 83.2643 121.236 137.896L124.504 153.37Z" fill="#003366"/>
<path d="M122.607 44C130.619 68.7368 135.574 101.053 137.155 138L138.947 153.368H145.273C146.643 110 142.848 69.1579 134.73 38.4211C130.619 22.7368 125.348 9.89474 119.233 0H92.2441C103.735 3.15789 114.489 18.7368 122.607 44Z" fill="#003366"/>
</g>
<defs>
<clipPath id="clip0">
<rect width="580" height="180" fill="white"/>
</clipPath>
</defs>
</svg>
